<?xml version="1.0" encoding="UTF-8"?>
<svg xmlns="http://www.w3.org/2000/svg" xmlns:xlink="http://www.w3.org/1999/xlink" width="43" height="43" viewBox="0 0 43 43">
<path fill-rule="nonzero" fill="rgb(100%, 100%, 100%)" fill-opacity="1" stroke-width="2" stroke-linecap="butt" stroke-linejoin="round" stroke="rgb(100%, 100%, 100%)" stroke-opacity="1" stroke-miterlimit="10" d="M 172 740 L 172 700 L 212 700 L 212 740 Z M 172 740 " transform="matrix(1, 0, 0, -1, -171, 741)"/>
<path fill="none" stroke-width="2" stroke-linecap="butt" stroke-linejoin="round" stroke="rgb(0%, 0%, 0%)" stroke-opacity="1" stroke-miterlimit="10" d="M 176 722.285156 L 180.570313 722.285156 L 180.570313 726.855469 L 176 726.855469 L 176 736 L 180.570313 736 L 180.570313 731.429688 L 185.144531 731.429688 L 185.144531 736 L 189.714844 736 L 189.714844 726.855469 L 185.144531 726.855469 L 185.144531 722.285156 L 189.714844 722.285156 " transform="matrix(1, 0, 0, -1, -171, 741)"/>
<path fill="none" stroke-width="2" stroke-linecap="butt" stroke-linejoin="round" stroke="rgb(0%, 0%, 0%)" stroke-opacity="1" stroke-miterlimit="10" d="M 194.285156 722.285156 L 198.855469 722.285156 L 198.855469 726.855469 L 194.285156 726.855469 L 194.285156 736 L 198.855469 736 L 198.855469 731.429688 L 203.429688 731.429688 L 203.429688 736 L 208 736 L 208 726.855469 L 203.429688 726.855469 L 203.429688 722.285156 L 208 722.285156 " transform="matrix(1, 0, 0, -1, -171, 741)"/>
<path fill="none" stroke-width="2" stroke-linecap="butt" stroke-linejoin="round" stroke="rgb(0%, 0%, 0%)" stroke-opacity="1" stroke-miterlimit="10" d="M 176 717.714844 L 176 713.144531 L 180.570313 713.144531 L 180.570313 717.714844 L 189.714844 717.714844 L 189.714844 713.144531 L 185.144531 713.144531 L 185.144531 708.570313 L 189.714844 708.570313 L 189.714844 704 L 180.570313 704 L 180.570313 708.570313 L 176 708.570313 L 176 704 " transform="matrix(1, 0, 0, -1, -171, 741)"/>
<path fill="none" stroke-width="2" stroke-linecap="butt" stroke-linejoin="round" stroke="rgb(0%, 0%, 0%)" stroke-opacity="1" stroke-miterlimit="10" d="M 208 704 L 208 708.570313 L 203.429688 708.570313 L 203.429688 704 L 194.285156 704 L 194.285156 708.570313 L 198.855469 708.570313 L 198.855469 713.144531 L 194.285156 713.144531 L 194.285156 717.714844 L 203.429688 717.714844 L 203.429688 713.144531 L 208 713.144531 L 208 717.714844 " transform="matrix(1, 0, 0, -1, -171, 741)"/>
<path fill="none" stroke-width="2" stroke-linecap="butt" stroke-linejoin="round" stroke="rgb(0%, 0%, 0%)" stroke-opacity="1" stroke-miterlimit="10" d="M 176 722.285156 L 176 717.714844 " transform="matrix(1, 0, 0, -1, -171, 741)"/>
<path fill="none" stroke-width="2" stroke-linecap="butt" stroke-linejoin="round" stroke="rgb(0%, 0%, 0%)" stroke-opacity="1" stroke-miterlimit="10" d="M 208 722.285156 L 208 717.714844 " transform="matrix(1, 0, 0, -1, -171, 741)"/>
<path fill="none" stroke-width="2" stroke-linecap="butt" stroke-linejoin="round" stroke="rgb(0%, 0%, 0%)" stroke-opacity="1" stroke-miterlimit="10" d="M 189.714844 722.285156 L 194.285156 722.285156 " transform="matrix(1, 0, 0, -1, -171, 741)"/>
</svg>
